<svg width="194" height="144" viewBox="0 0 194 144" fill="none" xmlns="http://www.w3.org/2000/svg">
<g clip-path="url(#clip0_1198_34300)">
<path d="M2.71289 39.5094L16.7336 43.7664L30.1202 47.2495L45.7966 49.677L44.8807 54.2155L68.73 57.1004L71.055 39.5094L72.1118 20.8278" stroke="#303334" stroke-width="0.8" stroke-miterlimit="10" stroke-linecap="round" stroke-dasharray="2 2"/>
<path d="M45.7969 49.677L48.2981 36.1671L71.0905 38.9817" stroke="#303334" stroke-width="0.8" stroke-miterlimit="10" stroke-linecap="round" stroke-dasharray="2 2"/>
<path d="M52.3493 55.1302L45.7969 99.2837" stroke="#303334" stroke-width="0.8" stroke-miterlimit="10" stroke-linecap="round" stroke-dasharray="2 2"/>
<path d="M31.9521 70.2937L49.6013 73.7415L67.2857 75.6062L80.2496 76.345L101.21 77.1894V79.5114L112.976 78.667L117.38 78.5263V79.9336L117.943 80.8835L119.458 80.6372" stroke="#303334" stroke-width="0.8" stroke-miterlimit="10" stroke-linecap="round" stroke-dasharray="2 2"/>
<path d="M101.21 77.1893V66.9514L100.435 66.5995L100.224 65.72L99.3786 65.0164L100.294 63.8553L99.3786 63.3276L98.8149 62.9054L75.7054 62.2722L74.5781 76.0283" stroke="#303334" stroke-width="0.8" stroke-miterlimit="10" stroke-linecap="round" stroke-dasharray="2 2"/>
<path d="M75.7046 62.2722V57.7337L68.7295 57.1004" stroke="#303334" stroke-width="0.8" stroke-miterlimit="10" stroke-linecap="round" stroke-dasharray="2 2"/>
<path d="M94.6221 51.3658C95.08 51.8935 95.7494 52.8434 95.8903 53.5471C95.996 54.0044 95.9255 54.4266 96.0664 54.884C96.2426 55.4469 96.5596 56.0098 96.6301 56.6079C96.7005 57.2764 96.6653 57.8041 96.8767 58.4374C97.1585 59.3873 97.5108 60.302 97.9335 61.2167C98.1449 61.7093 98.779 62.4833 98.7437 62.9407" stroke="#303334" stroke-width="0.8" stroke-miterlimit="10" stroke-linecap="round" stroke-dasharray="2 2"/>
<path d="M97.5107 60.1613C97.9687 60.3724 98.8846 60.1613 99.3778 60.1613C100.47 60.1613 101.527 60.0909 102.584 60.0206C104.134 59.915 105.648 59.7743 107.198 59.7743C108.326 59.7743 109.594 59.5984 110.686 59.8095C110.933 59.8446 111.32 59.9502 111.496 60.0909C111.672 60.2316 111.813 60.6187 112.06 60.7946" stroke="#303334" stroke-width="0.8" stroke-miterlimit="10" stroke-linecap="round" stroke-dasharray="2 2"/>
<path d="M92.6494 21.8129C92.896 22.3758 92.896 22.9739 93.1074 23.5368C93.2835 23.9942 93.354 24.4163 93.4244 24.8737C93.4949 25.8236 93.354 26.7735 93.4597 27.7234C93.5653 28.8493 93.7767 29.9399 94.0233 31.0306C94.2347 32.0508 94.1994 33.1063 94.3756 34.0914C94.4813 34.6543 94.6222 35.1469 94.6574 35.7098C94.6926 36.2727 94.4108 36.6597 94.1994 37.1522C93.9176 37.7503 94.0938 37.7855 94.5165 38.3132C94.904 38.8058 95.0801 39.0521 95.0801 39.6501C95.0801 41.2333 94.9392 42.8165 94.9392 44.3997C94.9392 45.3848 95.0097 46.3699 94.9745 47.3198C94.8335 47.2846 94.5869 47.3198 94.5165 47.4606C94.3756 47.7068 94.6574 47.742 94.7279 47.8827C94.904 48.2346 95.0097 48.5512 94.9392 48.9382C94.8688 49.7122 94.6574 50.451 94.6574 51.2602" stroke="#303334" stroke-width="0.8" stroke-miterlimit="10" stroke-linecap="round" stroke-dasharray="2 2"/>
<path d="M69.998 48.1994C71.5481 48.1994 73.0629 48.3753 74.6129 48.3753C76.1277 48.4105 77.6073 48.9382 79.1573 48.9382C81.3414 48.9382 83.5256 49.1141 85.6745 49.2197C86.4142 49.2549 87.2597 49.079 87.9995 49.2549C88.5279 49.3956 88.7041 49.853 89.1268 50.0992C89.62 50.3807 89.7609 50.0289 90.2893 49.8881C90.7825 49.7474 91.2052 49.9585 91.6984 50.064C92.6496 50.2751 93.7064 50.3807 94.5871 50.7677" stroke="#303334" stroke-width="0.8" stroke-miterlimit="10" stroke-linecap="round" stroke-dasharray="2 2"/>
<path d="M71.3369 34.9709C72.5347 34.7598 73.9086 35.0413 75.0711 35.182C76.7972 35.3931 78.4882 35.6042 80.2143 35.7801C82.786 36.0616 85.4633 35.9208 88.0702 35.9208C90.1486 35.9208 92.5793 35.7449 94.5521 36.2375" stroke="#303334" stroke-width="0.8" stroke-miterlimit="10" stroke-linecap="round" stroke-dasharray="2 2"/>
<path d="M94.9395 47.1439C95.5383 46.968 96.3133 47.0384 96.9474 47.0032C98.0747 46.9329 99.1668 46.8273 100.294 46.8273C102.196 46.8273 104.063 46.8625 105.966 46.7921C107.41 46.7569 108.854 46.7921 110.299 46.7921C110.862 46.7921 111.778 46.6514 112.272 46.8273" stroke="#303334" stroke-width="0.8" stroke-miterlimit="10" stroke-linecap="round" stroke-dasharray="2 2"/>
<path d="M108.714 31.9453C108.608 31.9805 108.08 32.2268 107.974 32.4027C107.798 32.7193 108.009 32.9656 108.115 33.2822C108.397 34.0562 108.467 34.8654 108.432 35.7098C107.622 35.7098 106.6 36.0968 106.706 37.1171C106.776 37.5393 107.269 37.6096 107.375 37.9966C107.446 38.3484 107.093 38.9114 107.058 39.2984C106.952 40.1779 106.988 41.1278 107.657 41.6907C108.714 42.5703 109.841 43.5554 111.074 44.2238C111.602 44.5053 111.92 44.5405 112.025 45.1737C112.131 45.5959 112.06 46.0533 112.166 46.4755C112.272 46.8625 112.518 47.1439 112.659 47.4958C112.8 47.9179 112.659 48.2346 112.659 48.6568C112.659 49.6067 113.153 50.24 113.998 50.627C114.491 50.8381 114.526 51.0843 114.843 51.5417C115.09 51.9287 115.442 52.1046 115.759 52.4212C116.816 53.4063 115.795 54.5322 115.301 55.4821C115.02 56.045 114.421 55.9746 113.787 56.2209C113.399 56.3616 113.364 56.3968 113.364 56.819C113.364 57.0653 113.293 57.4171 113.575 57.4875C113.61 57.8041 113.54 58.1207 113.47 58.4022C113.434 58.5429 113.434 58.8947 113.329 59.0003C113.223 59.141 113.012 59.1058 112.906 59.1762C112.378 59.5632 112.624 60.3724 111.884 60.6187" stroke="#303334" stroke-width="0.8" stroke-miterlimit="10" stroke-linecap="round" stroke-dasharray="2 2"/>
<path d="M114.491 50.8732C114.773 50.9084 115.09 50.838 115.372 50.8028C116.006 50.7676 116.605 50.7676 117.239 50.7676C118.261 50.7676 119.282 50.7325 120.304 50.6621C121.396 50.6269 122.488 50.2399 123.58 50.2751" stroke="#303334" stroke-width="0.8" stroke-miterlimit="10" stroke-linecap="round" stroke-dasharray="2 2"/>
<path d="M114.279 32.5082C114.737 32.6841 115.125 33.1063 115.583 33.2822C116.146 33.5285 116.851 33.7044 117.45 33.8803C118.401 34.1617 119.317 34.408 120.303 34.5136C120.937 34.5839 121.431 34.5487 121.748 35.1116C121.924 35.4635 121.994 35.7801 122.206 36.1319C122.417 36.4486 122.487 36.5541 122.558 36.9059C122.628 37.2929 122.84 37.504 122.91 37.8558C122.945 38.0669 122.734 37.9966 122.91 38.278C123.051 38.4891 123.262 38.278 123.333 38.5947C123.403 38.9817 122.84 39.2983 122.664 39.5798C122.452 39.9316 122.382 40.6352 122.417 41.0222C123.333 41.1981 123.932 39.6501 124.249 39.052C124.425 38.7002 124.707 38.3484 124.918 38.0318C125.129 37.7151 125.376 37.2578 125.764 37.117C125.411 38.5243 124.601 39.8964 124.143 41.3037C123.897 42.0073 123.861 42.7813 123.65 43.485C123.509 43.9775 123.439 44.3997 123.474 44.9274C123.544 46.4403 123.544 47.9531 123.579 49.5011C123.615 50.0992 123.544 50.7325 123.861 51.2954C124.143 51.7527 124.636 52.1046 124.812 52.6323C124.953 53.0193 125.024 53.4063 125.165 53.7581C125.341 54.2155 125.552 54.4969 126.01 54.3914C126.609 54.2507 127.631 53.547 128.018 53.0897C128.441 52.5971 128.828 51.8935 129.145 51.3306C129.463 50.7325 129.709 50.0288 129.639 49.3252C129.498 47.9179 128.511 46.6865 127.842 45.5255C127.49 44.8922 127.595 44.1886 127.595 43.485C127.595 42.8517 127.807 42.3943 127.877 41.7962C127.983 41.0574 127.877 40.3186 128.194 39.6149C128.406 39.0872 129.075 38.6298 129.463 38.1725C129.85 38.8058 129.991 39.3335 130.414 38.4539C130.625 37.9614 130.696 37.1874 131.118 36.8707C131.4 36.6597 131.611 36.7652 131.717 36.3782C131.788 36.1671 131.647 35.9208 131.682 35.6746C131.682 35.2172 131.893 34.795 132.105 34.408" stroke="#303334" stroke-width="0.8" stroke-miterlimit="10" stroke-linecap="round" stroke-dasharray="2 2"/>
<path d="M123.263 38.4892C124.002 37.7152 124.39 36.3431 124.918 35.4283C125.095 35.1117 125.341 34.5136 125.799 34.8302C126.151 35.0413 125.87 35.7801 126.398 35.4283C126.715 35.2172 126.962 34.6895 127.279 34.408C127.631 34.1266 128.018 33.9155 128.406 33.7044C128.864 33.4581 129.568 32.86 130.132 32.9304C130.379 32.9656 131.119 33.2822 131.33 33.4229C131.612 33.5989 131.717 33.9155 131.894 34.1969" stroke="#303334" stroke-width="0.8" stroke-miterlimit="10" stroke-linecap="round" stroke-dasharray="2 2"/>
<path d="M127.736 53.3008C129.075 52.949 130.695 52.9841 132.105 52.9138C132.985 52.8786 133.831 52.7379 134.676 52.6323C136.121 52.4564 137.635 52.6323 139.009 52.2101" stroke="#303334" stroke-width="0.8" stroke-miterlimit="10" stroke-linecap="round" stroke-dasharray="2 2"/>
<path d="M111.884 60.7242C112.236 61.6038 111.778 62.9407 112.271 63.8202C112.764 64.6998 113.962 65.4386 114.667 66.1071C115.054 66.4941 114.808 67.5495 115.23 67.7958C115.512 67.9365 115.829 67.4792 116.076 67.4792C116.323 67.444 116.499 67.7606 116.851 67.7958C116.957 68.2883 116.393 69.0975 116.252 69.5549C116.005 70.2585 116.287 70.3641 116.921 70.7511C117.309 70.9974 117.732 71.2788 118.119 71.4547C118.436 71.5955 118.788 71.5603 119.035 71.8417C119.423 72.2287 119.317 72.7916 119.458 73.2842C119.669 74.023 119.986 75.1137 120.62 75.571C121.113 75.958 121.043 75.7469 121.431 75.2896C121.853 74.797 122.17 75.0785 122.734 75.2192C122.804 75.2192 123.368 75.4303 123.403 75.3951C123.579 75.2896 123.509 74.8322 123.509 74.6211C123.509 74.0582 123.65 74.1286 124.214 73.9175C124.777 73.6712 124.777 73.5305 124.636 72.8972C124.495 72.3343 124.46 71.9473 124.601 71.3492C124.707 70.927 124.672 70.1178 124.883 69.766C125.024 69.5197 125.024 69.6956 125.27 69.5197C125.552 69.3438 125.693 69.1327 125.869 68.8161C126.116 68.3587 126.327 67.8662 126.503 67.3736C126.715 66.8107 126.468 66.7403 126.081 66.3181C125.869 66.0719 125.552 65.6849 125.623 65.4034C125.693 65.0164 126.01 64.7701 125.975 64.3128C125.904 63.011 125.834 61.6389 125.623 60.3724C125.411 59.1058 125.306 57.8393 125.306 56.5727C125.306 56.045 125.517 54.4618 125.27 54.11" stroke="#303334" stroke-width="0.8" stroke-miterlimit="10" stroke-linecap="round" stroke-dasharray="2 2"/>
<path d="M124.602 72.1232C125.764 72.2287 126.68 71.2436 127.807 71.6658C128.477 71.9121 128.265 71.701 128.653 71.1381C129.076 70.5048 129.181 71.0677 129.674 71.0677C130.273 71.0325 130.203 70.2233 130.52 69.9067C130.872 69.5549 131.224 70.0826 131.612 70.1882C132.246 70.3641 132.211 70.0826 132.457 69.5901C132.704 69.1327 133.056 68.7105 133.373 68.2883C133.479 68.1124 133.69 67.9013 133.761 67.7254C133.866 67.4791 133.761 67.1977 133.831 66.9514C133.972 66.4589 134.324 66.6348 134.818 66.5292C135.874 66.3181 135.522 65.0164 135.522 64.172C135.522 62.6592 135.24 61.3223 135.029 59.8446C134.853 58.5429 134.782 57.2412 134.677 55.9043C134.606 54.884 134.782 53.6878 134.536 52.7027" stroke="#303334" stroke-width="0.8" stroke-miterlimit="10" stroke-linecap="round" stroke-dasharray="2 2"/>
<path d="M135.522 64.7349C135.98 64.9108 136.474 64.4534 136.932 64.8053C137.213 65.0163 137.671 65.5089 137.812 65.8607C138.27 65.8959 138.799 65.7904 139.221 66.0014C139.715 66.2477 139.715 66.4236 140.313 66.2477C140.771 66.107 141.124 65.8607 141.617 65.8255C142.11 65.7904 142.533 65.72 142.991 65.6144C143.132 66.4236 143.907 66.881 144.682 66.7051C144.823 65.8607 144.787 64.4886 145.562 64.0313C146.056 63.7498 146.126 63.7146 146.302 63.2221C146.443 62.7295 146.619 62.3777 147.042 62.1314C147.429 61.9203 147.817 61.9203 148.134 61.5685C148.381 61.2871 148.557 60.9001 148.733 60.5834C149.191 59.8446 149.05 58.7539 149.261 57.9448C149.437 57.2411 149.261 56.8541 149.085 56.2208C148.98 55.8338 149.015 55.3413 148.98 54.9191C148.944 54.3562 148.839 53.8637 148.733 53.3359C148.592 52.4916 148.522 51.7879 148.486 50.9435C148.486 50.5565 148.522 49.6418 148.31 49.3604" stroke="#303334" stroke-width="0.8" stroke-miterlimit="10" stroke-linecap="round" stroke-dasharray="2 2"/>
<path d="M146.372 70.8566C146.16 70.9973 146.196 71.2084 146.055 71.4195C145.914 71.6306 145.597 71.8417 145.385 71.9824C144.928 72.299 144.716 72.5101 144.329 72.8971C143.906 73.3545 143.554 73.9878 143.06 74.41C142.779 74.6562 142.391 74.7618 142.074 74.9729C141.757 75.184 141.405 75.7117 141.052 75.7469L138.798 83.311" stroke="#303334" stroke-width="0.8" stroke-miterlimit="10" stroke-linecap="round" stroke-dasharray="2 2"/>
<path d="M143.977 66.6347C144.117 67.3032 143.836 68.1827 144.117 68.7808C144.329 69.2382 145.104 69.5548 145.456 69.9067C146.09 70.5399 146.478 71.2788 147.218 71.7713C147.535 72.0176 147.781 72.1583 148.204 71.9824C148.556 71.8065 148.768 71.138 149.155 71.0677C149.331 71.0325 149.578 71.2084 149.789 71.2084C150.036 71.1732 150.177 70.9973 150.388 70.8566C150.776 70.5399 151.198 70.1178 151.691 69.977C151.832 69.9418 152.009 69.9067 152.185 69.9067C152.255 69.4141 152.149 68.8512 152.361 68.3938C152.607 67.8309 153.03 67.3736 153.241 66.7755C153.453 66.1774 153.453 65.4737 153.664 64.9108C153.84 64.4534 154.404 64.4183 154.545 64.9812C154.827 65.0515 155.461 64.8053 155.637 64.5942C155.884 64.2424 155.567 63.6091 155.813 63.2573C156.024 62.9406 156.659 62.9054 156.94 62.624C157.222 62.3425 157.293 61.7444 157.398 61.3574C157.469 61.0408 157.504 60.2668 157.751 60.0557C158.068 59.8094 158.561 60.0909 158.913 60.2316C159.406 60.4427 159.547 60.6538 159.935 60.3372C160.146 60.1612 160.005 60.0205 160.358 60.0205C160.463 60.0205 161.027 60.302 161.097 60.3723C161.344 60.6186 161.168 60.7242 161.591 60.9001C161.943 61.0408 162.436 61.0408 162.823 61.076C163.105 61.8148 162.823 62.1666 162.542 62.8351C162.471 63.011 162.189 63.6091 162.26 63.8202C162.366 64.1016 163 64.172 163.281 64.2424C163.88 64.4183 164.479 64.4535 164.972 64.7701C165.395 65.0164 165.853 65.4034 166.311 65.4737" stroke="#303334" stroke-width="0.8" stroke-miterlimit="10" stroke-linecap="round" stroke-dasharray="2 2"/>
<path d="M149.401 56.9949C149.824 57.2763 149.895 58.2966 150.035 58.7892C150.106 59.0354 150.176 59.6335 150.423 59.8094C150.74 60.0557 151.762 59.8094 152.184 59.7391C152.642 59.6687 153.241 59.7039 153.629 59.4928C153.629 59.7743 153.84 60.3372 153.946 60.6538C154.157 61.2871 154.58 61.0408 155.073 60.7242C155.425 60.5131 155.672 60.1964 156.059 60.0205C156.412 59.8798 156.799 59.8798 157.187 59.8798C157.292 59.3872 157.75 59.1058 158.138 58.8243C158.596 58.4373 159.054 58.5077 159.617 58.3318C159.23 58.6836 160.005 58.9299 160.146 59.1762C160.287 59.4224 160.04 59.6687 160.111 59.8798" stroke="#303334" stroke-width="0.8" stroke-miterlimit="10" stroke-linecap="round" stroke-dasharray="2 2"/>
<path d="M159.513 58.2966C160.006 58.4022 160.992 58.0855 161.521 57.9096C162.366 57.6633 163.212 57.4171 164.092 57.206C164.762 57.0301 165.466 57.0301 166.1 56.819C166.065 57.1708 166.312 57.3467 166.453 57.6633C166.594 58.0152 166.734 58.4022 166.911 58.7892C167.298 59.5632 167.509 60.4779 167.826 61.2871C168.038 61.8148 168.038 62.2018 168.566 62.2018C168.883 62.2018 169.623 62.237 169.87 62.0611" stroke="#303334" stroke-width="0.8" stroke-miterlimit="10" stroke-linecap="round" stroke-dasharray="2 2"/>
<path d="M166.064 56.7838C166.311 56.4672 166.663 56.1857 167.192 56.1153C167.65 56.045 167.65 56.0801 168.037 55.7283C168.354 55.4469 169.129 55.1302 169.305 54.7784C169.446 54.497 169.094 54.1451 168.883 53.8285C168.213 52.949 167.121 52.8786 167.403 51.612C167.509 51.0491 167.614 50.5214 167.685 49.9585C167.72 49.6418 168.037 48.6567 168.249 48.4808" stroke="#303334" stroke-width="0.8" stroke-miterlimit="10" stroke-linecap="round" stroke-dasharray="2 2"/>
<path d="M167.263 56.1154C167.404 56.1857 167.509 57.4171 167.58 57.6985C167.65 58.0855 167.756 58.4022 167.967 58.7188" stroke="#303334" stroke-width="0.8" stroke-miterlimit="10" stroke-linecap="round" stroke-dasharray="2 2"/>
<path d="M150.635 47.3198C150.811 47.6716 150.74 48.2345 150.881 48.6215C150.917 48.7271 151.057 49.5363 151.128 49.5714C151.269 49.677 152.009 49.3252 152.15 49.3252C153.03 49.1493 153.946 49.0085 154.862 48.7974C157.399 48.129 160.005 47.6716 162.577 47.2143C163.352 47.0735 164.127 46.8976 164.867 46.7569C165.466 46.6513 165.712 47.0032 166.065 47.4957C166.452 48.0586 166.523 48.2345 167.227 48.3049C167.826 48.3401 168.425 48.5864 168.988 48.7271C169.446 48.8326 169.975 48.9382 170.362 49.1493C170.715 49.3604 170.996 49.677 171.384 49.7825C171.278 50.2047 171.384 51.5416 171.067 51.7879" stroke="#303334" stroke-width="0.8" stroke-miterlimit="10" stroke-linecap="round" stroke-dasharray="2 2"/>
<path d="M171.419 50.4158C171.525 50.3455 171.701 49.2196 171.877 48.9382C172.159 48.516 172.089 48.4105 171.983 47.9179C171.701 46.8624 171.701 45.7014 171.631 44.6108C171.596 43.6257 171.631 42.6054 171.49 41.6203C171.384 40.9519 171.138 40.2131 170.961 39.5094C170.856 39.052 170.821 38.5595 170.644 38.1021C170.468 37.6448 170.292 37.5392 169.799 37.6448C169.834 36.9411 169.271 36.4486 169.13 35.8153C168.989 35.2876 169.411 34.9357 169.447 34.408C169.482 33.9155 169.165 33.4933 169.024 33.0711C168.883 32.6137 168.953 32.086 168.777 31.6638" stroke="#303334" stroke-width="0.8" stroke-miterlimit="10" stroke-linecap="round" stroke-dasharray="2 2"/>
<path d="M171.701 44.6812C172.406 44.7163 173.427 44.1182 174.132 43.9423C175.189 43.6609 176.246 43.3794 177.302 43.2035C177.584 43.1683 177.831 43.0628 178.077 43.2035C178.289 43.3442 178.465 43.8368 178.606 44.0479C178.958 44.5756 179.134 44.8922 179.31 45.4903" stroke="#303334" stroke-width="0.8" stroke-miterlimit="10" stroke-linecap="round" stroke-dasharray="2 2"/>
<path d="M176.915 43.2387C177.303 44.1886 177.514 45.5255 177.584 46.5458" stroke="#303334" stroke-width="0.8" stroke-miterlimit="10" stroke-linecap="round" stroke-dasharray="2 2"/>
<path d="M171.561 41.55C172.441 41.5148 173.392 41.0574 174.273 40.8463C175.119 40.6704 175.964 40.3186 176.81 40.1779C177.373 40.0723 177.69 40.1427 178.078 39.6853C178.395 39.2983 178.677 38.665 179.17 38.665" stroke="#303334" stroke-width="0.8" stroke-miterlimit="10" stroke-linecap="round" stroke-dasharray="2 2"/>
<path d="M173.709 41.0574C173.991 40.1427 173.78 38.9465 173.709 38.0318C173.674 37.4689 173.709 36.9411 173.674 36.3782C173.639 35.8505 173.709 35.4987 173.815 34.9709C173.921 34.4784 173.745 34.0562 173.745 33.634C173.709 33.0711 174.026 33.3174 174.449 32.9304C174.766 32.6489 174.696 32.4378 174.59 32.0508C174.414 31.3824 174.449 30.6084 174.308 29.9047" stroke="#303334" stroke-width="0.8" stroke-miterlimit="10" stroke-linecap="round" stroke-dasharray="2 2"/>
<path d="M175.576 28.6733C175.893 28.7085 176.245 29.4122 176.422 29.6936C176.739 30.2213 176.809 30.8194 176.985 31.4175C177.302 32.5434 177.443 33.6692 177.655 34.8302C177.796 35.4635 177.866 36.5893 178.289 37.0467C178.465 37.2578 178.958 37.5744 179.134 37.6799" stroke="#303334" stroke-width="0.8" stroke-miterlimit="10" stroke-linecap="round" stroke-dasharray="2 2"/>
<path d="M33.3611 14.9875C33.5372 15.7264 32.7622 16.7818 32.5508 17.591C32.2338 18.8224 32.0576 20.0889 31.811 21.3203C31.3883 23.2201 31.0712 25.12 30.6837 27.0198C30.578 27.4772 30.2962 28.216 30.4371 28.6734C30.5428 29.1307 31.1417 29.4122 31.3531 29.8344C31.5997 30.3269 31.1417 30.7491 30.7894 31.2768C30.4019 31.8046 30.1905 32.3323 29.9792 32.8952C29.7678 33.4581 29.6269 33.8099 29.1337 34.1969C28.7462 34.4784 28.2882 34.6191 28.2178 35.1468C28.1473 35.7098 28.6757 35.9209 28.7462 36.3782C28.8519 36.8708 28.3235 37.6448 28.1473 38.278C27.6894 39.9668 27.478 41.7259 27.2666 43.4146C27.1609 44.3294 27.0553 45.5255 26.7734 46.3347" stroke="#303334" stroke-width="0.8" stroke-miterlimit="10" stroke-linecap="round" stroke-dasharray="2 2"/>
<path d="M9.44141 21.5666C9.82891 22.024 10.6744 21.8832 11.0267 22.235C11.3085 22.5165 11.2028 22.9387 11.5903 23.2201C12.0835 23.6071 12.1187 23.3961 12.2596 24.1349C12.3653 24.6274 12.4358 25.1552 12.5415 25.6477C13.3165 25.4014 14.1267 26.281 14.8665 26.4569C15.6415 26.6328 15.6415 26.0347 16.3108 25.9292C16.8745 25.8588 17.7904 26.5273 18.3188 26.7032C19.1995 27.055 19.7984 27.0902 20.7496 26.8791C23.8848 26.2106 26.9497 27.5827 30.0145 28.0753C30.1202 28.0753 30.1906 28.1104 30.2611 28.1456" stroke="#303334" stroke-width="0.8" stroke-miterlimit="10" stroke-linecap="round" stroke-dasharray="2 2"/>
<path d="M36.179 15.7264C36.1085 17.1688 35.2278 18.752 35.3688 20.2649C35.4392 20.7926 35.7915 21.25 35.9324 21.8129C36.1085 22.411 35.9324 22.9035 35.9676 23.3961C36.0381 24.3108 36.9188 25.6829 37.412 26.5273C37.5881 26.8087 37.9756 27.7234 38.2574 27.8994C38.4688 28.0401 39.1734 27.8994 39.42 27.9345C39.2791 28.9196 38.3631 30.2214 37.9052 31.1361C37.729 31.4879 37.5881 32.0157 38.0461 32.2619C38.504 32.5082 39.0325 32.0157 39.4904 31.8749C39.6313 33.0008 40.0541 34.2673 40.4063 35.3228C40.7234 36.2727 41.3575 36.6245 41.8507 37.4337C42.1677 37.9966 42.1325 38.067 42.8371 38.067C43.5416 38.067 44.211 37.9966 44.9507 38.1373C45.8667 38.3132 46.994 38.4188 47.8042 38.841" stroke="#303334" stroke-width="0.8" stroke-miterlimit="10" stroke-linecap="round" stroke-dasharray="2 2"/>
<path d="M121.254 75.6414C121.219 75.8524 121.466 76.0635 121.501 76.3098C121.536 76.5913 121.43 76.6968 121.325 76.9431C121.184 77.2949 121.043 77.8578 120.761 78.1393C120.374 78.4911 119.951 78.5263 119.704 79.054C119.563 79.4058 119.528 79.8984 119.493 80.2854C119.352 81.2705 119.211 82.0797 118.577 82.8537C117.978 83.6277 117.732 84.5776 117.379 85.4571C116.921 86.583 116.217 87.6384 115.759 88.7994C115.16 90.2419 114.702 91.2974 114.913 92.8805C115.019 93.7601 115.125 94.6396 115.336 95.5192C115.442 96.0821 115.653 96.6098 115.724 97.1728C115.759 97.7357 115.547 98.2282 115.336 98.7559C115.019 99.5651 114.667 100.339 114.42 101.184C114.244 101.746 113.856 102.696 113.856 103.294C113.856 103.717 113.892 103.681 114.244 103.752C114.702 103.857 115.406 103.787 115.9 103.752C116.992 103.681 118.084 103.541 119.141 103.435C119.669 103.4 120.338 103.259 120.832 103.435C120.867 103.963 120.726 104.35 120.691 104.807C120.62 105.441 121.008 105.335 121.395 105.722L121.501 107.059" stroke="#303334" stroke-width="0.8" stroke-miterlimit="10" stroke-linecap="round" stroke-dasharray="2 2"/>
<path d="M126.116 105.581L125.518 100.022C125.518 100.022 125.94 93.6545 125.799 93.2324C125.658 92.8102 125.518 84.6128 125.518 84.6128" stroke="#303334" stroke-width="0.8" stroke-miterlimit="10" stroke-linecap="round" stroke-dasharray="2 2"/>
<path d="M117.38 85.4571L125.095 84.9294L129.111 84.6127L136.72 83.5925L142.92 82.7129H144.188L146.372 81.2001L151.445 80.8835L152.784 81.7982L156.906 81.4464L161.767 85.1053" stroke="#303334" stroke-width="0.8" stroke-miterlimit="10" stroke-linecap="round" stroke-dasharray="2 2"/>
<path d="M144.189 82.7129L143.695 84.1554L144.928 85.0349L145.598 85.7034L147.852 87.8143L149.543 89.1864L150.283 89.9604L151.551 90.6289L152.009 92.1417L153.136 92.8453V94.2878L154.827 94.8507" stroke="#303334" stroke-width="0.8" stroke-miterlimit="10" stroke-linecap="round" stroke-dasharray="2 2"/>
<path d="M134.817 83.8739L137.248 93.5842L138.587 95.5896V96.6802L137.917 97.5597L138.587 98.8615V99.9873V101.289L139.573 103.189C139.573 103.189 150.318 101.957 150.388 102.098C150.423 102.239 150.952 103.118 151.093 103.189C151.234 103.224 151.304 102.098 151.304 102.098L150.881 100.726L151.797 101.395L153.065 101.289" stroke="#303334" stroke-width="0.8" stroke-miterlimit="10" stroke-linecap="round" stroke-dasharray="2 2"/>
<path d="M130.343 105.511L129.745 104.737L130.343 104.104L129.075 103.154V102.52H131.929L138.798 101.641" stroke="#303334" stroke-width="0.8" stroke-miterlimit="10" stroke-linecap="round" stroke-dasharray="2 2"/>
<path d="M104.028 95.097L115.16 94.6748" stroke="#303334" stroke-width="0.8" stroke-miterlimit="10" stroke-linecap="round" stroke-dasharray="2 2"/>
<path d="M101.21 79.7576L102.302 86.794L102.02 91.9658" stroke="#303334" stroke-width="0.8" stroke-miterlimit="10" stroke-linecap="round" stroke-dasharray="2 2"/>
<path d="M70.9844 77.9985L81.7289 78.5966L81.588 87.3921C82.3278 87.3218 83.7369 88.2365 84.1948 88.7994C84.4767 89.1512 84.6176 89.8197 85.0755 90.0308C85.3926 90.1715 85.921 89.9956 86.2381 90.0308C86.7665 90.1011 87.2597 90.1715 87.7881 90.1715C88.3517 90.1715 89.0563 90.0308 89.5847 90.1363C90.0427 90.2067 90.3949 90.6992 90.8881 90.7344C91.5222 90.8048 92.1211 90.6289 92.7904 90.7344C93.4245 90.84 94.0234 90.84 94.6223 91.0511C95.2212 91.2622 96.1019 91.4029 96.7007 91.2973C97.7223 91.1214 98.8849 90.5233 99.9065 90.9455C100.224 91.0862 100.611 91.2973 100.893 91.4732C101.139 91.614 101.28 91.8251 101.562 91.9658C102.091 92.2473 103.042 92.1417 103.535 92.3176H104.063C104.063 93.3731 103.887 94.4285 103.852 95.484C103.817 96.6098 104.099 97.7005 104.099 98.8263C104.099 99.7058 104.697 100.48 105.12 101.289C105.402 101.782 105.649 102.344 105.754 102.907C105.825 103.259 105.719 103.717 105.825 104.033C105.93 104.315 106.107 104.244 106.071 104.561C106.036 104.948 105.402 105.476 105.261 105.863C105.12 106.285 105.226 106.813 105.332 107.235C105.472 107.798 105.472 107.903 105.155 108.396C104.874 108.853 104.733 109.275 104.733 109.873" stroke="#303334" stroke-width="0.8" stroke-miterlimit="10" stroke-linecap="round" stroke-dasharray="2 2"/>
<path d="M55.5195 98.4041V97.419L69.3993 98.4041L70.9846 75.8173" stroke="#303334" stroke-width="0.8" stroke-miterlimit="10" stroke-linecap="round" stroke-dasharray="2 2"/>
<path d="M36.3908 48.1994L30.9658 74.1637L30.0498 74.7266L28.7816 74.0582L28.1827 75.571V77.5764L27.6896 78.9485L12.7529 57.1004L16.3814 43.6609" stroke="#303334" stroke-width="0.8" stroke-miterlimit="10" stroke-linecap="round" stroke-dasharray="2 2"/>
<path d="M27.7595 78.5966C27.9004 79.4058 27.7243 80.3909 27.9356 81.2001C28.1118 81.9389 28.7811 82.5018 29.2743 83.0296C28.8516 83.3462 28.1822 83.5573 27.7595 83.9443C27.1606 84.4368 27.4777 84.5072 27.2663 85.2108C27.0902 85.8441 26.4913 85.9848 26.3504 86.5478C26.2095 87.0755 26.4913 87.6736 26.4561 88.2013C26.8436 88.2365 27.0549 88.5531 27.0197 88.9401C26.3151 89.2216 25.5049 90.1011 25.0117 90.6289" stroke="#303334" stroke-width="0.8" stroke-miterlimit="10" stroke-linecap="round" stroke-dasharray="2 2"/>
<path d="M99.7303 20.6167C99.9769 21.1092 99.9769 21.5314 100.012 22.0591C100.012 22.3758 100.012 22.6572 100.223 22.8331C100.364 22.9739 100.47 22.8331 100.611 23.0794C100.681 23.2553 100.646 23.4664 100.646 23.6423C101.562 23.7127 102.584 23.5368 103.5 23.7831C103.464 23.959 103.464 24.1349 103.464 24.3108C103.676 24.3108 104.169 24.3108 104.345 24.1701C104.557 24.0293 104.486 23.8886 104.521 23.6072C104.874 23.7479 105.296 23.7831 105.684 23.8182C106.001 23.8182 106.952 23.6423 107.199 23.8534C107.269 23.9238 107.48 24.4515 107.551 24.5571C107.692 24.8033 107.797 25.0144 107.833 25.2959C108.22 25.3311 108.89 25.2255 109.242 25.4718C109.524 25.6477 109.594 26.0699 109.946 26.2106C110.369 26.3865 110.968 26.1051 111.391 26.0347C111.673 25.9643 111.778 25.9995 111.919 25.8236C112.025 25.6829 111.99 25.4366 112.095 25.2959C112.377 24.9441 113.046 25.3311 113.54 25.4014C113.751 25.4366 114.068 25.4014 114.244 25.4718C114.42 25.5422 114.385 25.6829 114.632 25.7181C115.195 25.8588 116.745 25.3663 116.358 26.4921C115.689 26.7384 114.984 26.5976 114.279 26.9494C113.54 27.3364 112.87 28.0401 112.166 28.5678C111.356 29.2011 110.58 29.8696 109.841 30.6084C109.524 30.925 108.854 31.5935 108.678 32.0157C109.277 32.1212 109.911 32.1564 110.545 32.0508C110.686 31.699 111.32 31.5231 111.637 31.312C111.919 31.1009 112.095 30.7843 112.448 30.7491C112.835 30.6787 112.87 30.8195 113.223 30.538C113.504 30.3269 113.751 30.1158 113.998 29.8696C114.139 30.0103 114.561 30.1862 114.632 30.3621C114.702 30.5732 114.174 30.925 113.998 31.1009C113.716 31.3472 112.941 31.7694 112.906 32.1212C113.046 32.2267 113.998 32.5434 114.139 32.5786C114.702 32.2971 115.125 31.699 115.724 31.4527C116.076 31.312 116.499 31.4527 116.851 31.3472C117.203 31.2768 117.45 31.0306 117.661 30.7491C118.049 30.3621 118.154 30.3621 118.683 30.3269C118.718 29.9751 119.07 29.5177 119.282 29.2363C119.458 28.99 119.74 28.9196 119.951 28.7085C120.057 28.603 120.127 28.4623 120.233 28.3567C120.656 28.0401 121.677 27.9345 122.17 28.0049C121.677 28.4623 121.607 29.0955 121.114 29.4826C120.585 29.9047 120.022 30.3973 119.986 31.1361C120.444 30.925 120.797 30.538 121.29 30.5732C121.783 30.6084 122.276 30.7139 122.805 30.7491C122.805 31.1361 123.298 31.5231 123.615 31.699C123.967 31.9101 124.355 31.5583 124.707 31.699C125.094 31.8397 124.813 32.1916 125.341 32.1564C125.623 32.1212 126.468 31.8749 126.468 31.4879C127.243 31.3824 127.913 31.1361 128.652 30.8546C129.04 30.7139 129.639 30.7843 129.991 30.6084C130.202 30.4676 130.555 29.8344 130.942 30.3269C131.048 30.4325 130.942 30.6436 130.977 30.7843C131.013 30.9602 131.118 31.1361 131.189 31.2768C131.576 31.312 131.999 31.312 132.387 31.2768C132.387 31.2065 132.422 31.1009 132.387 31.0306C132.563 31.0306 132.633 31.1361 132.809 31.1713C133.021 31.2065 133.302 31.1713 133.514 31.1713C133.76 31.1713 133.725 31.0306 133.901 31.2065C134.007 31.312 134.042 31.4879 134.077 31.6287C134.183 31.8397 134.324 32.3675 134.535 32.5082C134.782 32.6841 135.275 32.5786 135.592 32.5786C135.628 32.86 135.768 33.1063 135.733 33.3878C135.134 33.5637 134.606 33.3174 134.007 33.3878C133.69 33.4229 133.479 33.634 133.197 33.7044C132.88 33.7748 132.563 33.5285 132.246 33.5637C132.175 33.7748 132.034 34.1266 132.105 34.3377C132.21 34.6191 132.422 34.5488 132.774 34.5839C133.408 34.6543 133.937 34.9358 134.606 34.9709C134.571 35.956 136.085 35.7801 136.825 35.956C137.389 36.0968 137.495 36.3079 137.565 36.8356C137.6 37.1522 137.741 37.0467 137.459 37.2226C137.318 37.293 137.037 37.2226 136.896 37.3633C136.72 37.6096 137.283 38.1021 137.495 38.2781C137.917 38.6299 138.058 38.7706 138.093 39.3687C138.129 39.7909 138.234 40.6352 137.953 40.9871C137.741 41.2333 137.283 41.1982 136.966 41.5148C136.473 42.0073 135.416 43.3443 136.649 43.6961C137.178 43.8368 137.248 43.485 137.459 43.2035C137.741 42.7814 137.953 42.5703 138.129 42.0777C138.305 41.5852 138.551 41.6555 139.08 41.6203C139.503 41.5852 139.784 41.6203 140.066 41.937C140.278 42.2184 140.383 42.6406 140.489 42.9573C140.63 43.4498 140.876 43.9072 141.017 44.3997C141.299 45.3145 141.828 46.194 142.039 47.1439C142.109 47.3902 142.18 47.9179 141.933 48.0938C141.722 48.2697 141.299 48.129 141.123 47.9883C140.207 47.7068 139.115 48.903 139.08 51.5065C139.08 51.9639 139.045 52.0694 139.397 52.2805C139.784 52.5268 140.172 52.9841 140.63 52.949C141.053 52.9138 141.334 52.6675 141.757 52.8786C142.074 53.0193 142.215 53.3711 142.567 53.3008C142.779 53.2656 142.99 53.0545 143.166 52.949C143.519 52.8082 143.906 52.7379 144.258 52.6323C144.752 52.4916 144.998 52.3509 145.245 51.9287C145.985 50.7325 147.288 50.1344 148.415 49.3252C149.472 48.5864 150.388 47.6013 151.304 46.7217C151.691 46.3347 152.185 46.1588 152.572 45.807C152.713 45.6663 152.784 45.5959 152.854 45.42C152.96 45.1386 152.924 45.2793 152.819 45.033C152.643 44.5756 152.396 44.0831 152.255 43.5905C152.114 43.1332 151.938 42.8869 152.431 42.6406C153.171 42.2536 154.474 41.9722 155.32 42.0425C155.707 42.0777 155.989 42.2888 156.342 42.324C156.799 42.3592 157.434 42.1129 157.856 42.0074C158.49 41.8314 160.498 41.5852 160.745 40.8815C160.815 40.7408 160.71 40.5297 160.745 40.389C160.815 40.2131 160.956 40.1779 161.027 40.002C161.273 39.5446 160.921 39.3687 160.78 38.9817C160.639 38.5243 160.886 38.3484 160.463 38.1725C160.181 38.067 159.794 38.1021 159.864 37.6448C159.9 37.3281 160.428 37.0819 160.639 36.906C160.921 36.6597 161.238 36.3079 161.379 35.956C161.52 35.6042 161.555 35.3228 161.802 35.0061C162.013 34.7599 163.035 33.8099 163.07 33.4581C163.387 33.2822 169.552 31.2768 172.617 30.3973C173.11 30.2566 173.709 30.151 174.132 29.9047C174.484 29.6936 174.308 29.377 174.484 28.99C174.66 28.6382 174.907 28.7085 175.259 28.5678C175.505 28.4623 176.034 28.3919 176.175 28.2512C176.351 28.0401 176.457 27.1957 176.527 26.9143C176.703 26.3865 176.809 25.8236 177.091 25.3663C177.337 24.9441 177.302 24.9089 177.161 24.4163C177.056 24.0645 177.02 23.7127 177.126 23.3609C177.302 22.8331 177.443 22.7628 177.161 22.2351C176.915 21.7777 177.02 21.4962 177.161 20.9333C177.302 20.3 177.513 19.6316 177.76 19.0335C177.971 18.5409 178.359 18.1539 178.394 17.6262C178.641 17.591 178.887 17.4503 179.134 17.4503C179.134 17.6614 179.204 18.0836 179.451 18.1891C179.733 18.3299 180.05 18.0132 180.332 17.8021C180.508 17.6966 180.825 17.4151 181.001 17.3448C181.212 17.2744 181.142 17.3096 181.353 17.3799C181.776 17.5207 182.199 17.8021 182.622 17.978C183.537 18.3298 183.537 19.4205 183.819 20.3C184.242 21.5314 185.228 22.6924 185.193 24.0645C185.581 24.0997 186.25 23.959 186.461 24.2756C186.602 24.4515 186.497 24.733 186.567 24.9441C186.673 25.2255 186.955 25.4366 187.025 25.7181C187.236 25.6125 187.413 25.507 187.589 25.4014C187.765 25.6125 188.152 25.8236 188.293 26.0347C188.434 26.2458 188.399 26.668 188.399 26.9494C188.399 27.5475 188.328 27.9697 187.835 28.3215C187.377 28.6382 186.919 28.8845 186.532 29.3066C186.215 29.6585 185.369 30.8898 184.947 30.1158C184.735 30.3973 184.453 30.9954 184.136 31.1361C183.784 31.312 183.537 31.0306 183.22 30.8898C183.009 31.4527 183.291 32.2267 183.256 32.8248C182.727 32.9304 182.375 33.7396 182.128 34.021C181.952 34.0562 181.353 34.5839 181.036 34.6191C180.684 34.6543 179.944 34.4784 179.698 34.7599C179.592 34.9006 179.592 35.2876 179.557 35.4635C179.486 35.8505 179.381 36.2727 179.345 36.6597C179.24 37.3633 179.064 38.0318 179.099 38.7354C179.803 38.7706 180.226 38.6651 180.508 39.5798C180.649 39.9668 180.614 39.9316 180.261 40.0723C179.944 40.2131 179.592 40.3186 179.275 40.389C179.204 40.8112 179.451 41.163 179.451 41.5852C180.226 41.8314 181.424 42.2536 181.494 43.2387C181.847 43.2035 182.304 43.098 182.622 42.9221C182.974 42.711 183.15 42.3944 183.361 42.8517C183.502 43.1332 183.643 43.6961 183.467 43.9424C183.22 44.1886 182.445 44.259 182.093 44.2942C182.023 44.6812 182.023 45.0682 181.67 45.3145C181.318 45.5607 181.036 45.42 180.649 45.3848C180.296 45.3496 179.768 45.3496 179.451 45.4552C179.028 45.5959 178.711 46.0885 178.359 46.3347C177.373 46.968 176.21 47.2495 175.083 47.5661C174.202 47.8476 172.722 49.1141 172.546 49.9937C172.934 49.8529 173.321 49.677 173.744 49.5715C174.202 49.4659 174.695 49.5011 175.118 49.29C175.541 49.1141 175.928 48.6919 176.281 48.4105C176.562 48.1994 176.879 47.9883 177.126 47.7772C177.408 47.9883 177.478 47.9883 177.267 48.2697C177.126 48.4808 176.738 48.7623 176.527 48.9382C175.858 49.5011 174.907 50.2048 174.273 50.6621C173.815 50.8732 173.18 51.0139 172.722 51.225C172.265 51.4361 171.595 51.7528 171.067 51.7528C171.032 52.4212 171.243 52.4564 171.842 52.4916C171.912 53.16 171.807 53.9341 171.771 54.6377C171.736 55.4469 171.842 56.2209 171.454 56.9597C171.137 57.593 170.714 58.0503 170.644 58.754C170.609 58.9651 170.644 59.4928 170.538 59.6687C170.397 59.8798 169.939 59.915 169.693 59.9502C169.552 59.6335 169.517 59.2465 169.376 58.9299C168.883 58.8947 168.319 58.8244 167.826 58.8244C167.967 59.3169 168.354 59.8446 168.742 60.2316C169.024 60.5131 169.587 60.5483 169.834 60.9353C170.01 61.2871 169.869 62.1315 169.834 62.5185C169.799 63.011 169.939 63.5739 169.799 64.0665C169.693 64.4887 169.376 64.4183 169.235 64.7701C169.024 65.2627 169.129 66.0015 169.059 66.5292C168.988 67.0569 168.953 67.5847 168.953 68.1476C168.953 68.4642 169.024 68.5346 168.742 68.6401C168.636 68.6753 168.213 68.6753 168.143 68.605C167.72 68.2531 167.861 66.0015 168.037 65.6497C168.143 65.4386 168.742 64.9812 168.601 64.7349C168.566 64.6646 168.249 64.6646 168.143 64.6294C168.037 64.559 168.002 64.3831 167.932 64.2776C167.333 64.7349 166.064 63.398 165.853 62.9406C165.642 62.4833 165.536 61.7445 165.395 61.2519C165.289 60.8297 165.254 60.3724 165.184 59.915C165.113 60.0557 164.937 60.1261 164.761 60.1261C164.691 60.7945 164.691 61.3926 164.726 62.0611C164.726 62.5185 164.761 62.5536 165.043 62.8703C165.219 63.0462 165.43 63.2221 165.536 63.4332C165.677 63.7147 165.606 63.9609 165.712 64.2424C165.818 64.559 166.029 64.5238 166.241 64.7349C166.699 65.1923 166.558 65.7552 166.381 66.2126C166.522 66.7755 167.403 67.3384 166.875 67.9013C166.452 68.3587 166.522 68.1828 166.804 68.6753C166.98 68.992 167.051 69.4493 166.945 69.8011C167.579 69.8715 168.249 69.4493 168.707 69.9771C169.235 70.5751 169.411 71.314 169.693 72.0176C169.869 72.475 170.292 73.0379 170.574 73.4601C170.715 73.6712 170.961 73.8119 171.137 74.023C171.454 74.41 171.525 75.0081 171.595 75.5006C171.666 76.0284 171.701 76.2746 171.349 76.6265C171.137 76.8375 170.926 77.0838 170.679 77.2949C170.468 77.506 170.151 77.5764 169.975 77.7523C169.517 78.1393 169.2 78.8429 168.812 79.3003C168.425 79.828 168.53 80.0039 167.826 80.0391C167.333 80.0743 167.051 80.0743 166.663 80.3206C166.205 80.6372 166.029 81.0594 165.747 81.5168C165.395 82.0445 164.902 82.3963 164.585 82.9592C164.338 83.4166 163.88 84.1202 163.916 84.648C163.669 84.6128 163.387 84.472 163.176 84.472C162.718 84.5072 162.26 84.7887 161.908 85.035C161.273 85.422 160.71 85.809 160.358 86.4422C159.97 87.1107 159.759 87.8847 159.688 88.6587C159.618 89.3623 159.547 89.6086 158.737 89.4327C158.772 89.679 158.631 89.8197 158.561 89.9956C158.455 90.2771 158.455 90.5937 158.35 90.84C157.997 91.6844 156.976 92.001 156.482 92.7046C156.306 92.9861 156.095 93.2324 155.848 93.4435C155.637 93.6194 155.144 93.8305 155.003 94.0767C154.897 94.2878 155.038 94.5341 154.932 94.7452C154.862 94.8859 154.263 95.4137 154.228 95.4137L153.911 96.0821C153.946 96.0821 153.981 96.0821 154.016 96.0821C153.911 96.5395 153.84 97.032 153.805 97.5246C153.77 98.0171 153.876 98.58 153.629 99.0374C153.418 99.3892 153.241 99.4596 153.241 99.917C153.241 100.339 153.171 100.797 153.171 101.184C153.171 101.746 153.735 102.485 153.981 103.013C154.439 104.033 154.756 105.089 155.32 106.109C156.024 107.411 156.659 108.783 157.645 109.909C158.068 110.436 158.948 110.753 158.631 111.597C158.561 111.808 158.42 111.879 158.385 112.09C158.35 112.266 158.455 112.547 158.455 112.723C158.526 113.181 158.702 113.603 158.948 114.025C159.547 115.045 160.322 116.101 161.097 116.98C161.379 117.297 161.52 117.438 161.59 117.86C161.661 118.317 161.696 118.775 161.731 119.267C161.767 119.83 161.837 120.393 161.872 120.956C161.872 121.308 162.048 121.941 161.908 122.293C161.731 122.68 161.344 122.469 161.414 122.961C161.485 123.348 161.767 123.735 161.837 124.122C161.978 125.072 161.027 125.107 160.322 125.318C159.794 125.494 158.631 125.952 158.279 125.354C158.138 125.072 158.138 124.65 158.032 124.333C157.892 123.841 157.645 123.63 157.328 123.278C156.976 122.891 156.905 122.75 156.377 122.856C155.743 122.996 155.743 123.172 155.426 122.574C155.214 122.187 155.003 121.835 154.827 121.413C154.686 121.026 154.615 120.85 154.157 120.745C153.664 120.639 153.418 120.745 153.347 120.217C153.312 119.865 153.418 119.513 153.382 119.162C153.171 118.986 152.995 119.197 152.784 119.162C152.572 119.126 152.396 118.845 152.29 118.669C152.008 118.282 151.797 117.825 151.48 117.473C151.269 117.227 150.564 116.804 150.494 116.488C150.388 116.066 151.022 115.784 151.022 115.362C151.057 114.623 150.458 115.045 150.106 115.292C149.719 114.834 149.507 113.955 149.648 113.392C149.789 112.829 150.036 112.407 149.965 111.808C149.895 110.964 149.719 109.873 149.225 109.17C148.979 108.853 148.45 108.712 148.063 108.537C147.112 108.15 146.865 107.587 146.196 106.813C145.879 106.461 145.386 106.179 144.928 106.003C144.364 105.792 143.906 105.37 143.307 105.335C142.708 105.335 142.497 105.405 142.391 105.968C142.321 106.355 142.286 106.742 142.039 107.059C141.792 107.376 141.475 107.446 141.088 107.587C140.876 107.692 140.559 107.974 140.348 108.009C139.89 108.079 139.186 107.692 138.798 107.551C138.763 107.2 138.974 106.848 138.833 106.496C138.446 105.511 136.473 105.441 135.663 105.335C134.817 105.229 133.831 105.054 132.985 105.018C132.492 105.018 131.964 105.265 131.471 105.37C130.977 105.476 130.519 105.511 130.026 105.616C129.639 105.687 129.04 106.074 128.688 106.003C128.265 105.933 128.089 105.335 127.736 105.089C127.49 104.913 127.525 104.807 127.384 105.159C127.314 105.335 127.384 105.511 127.314 105.687C127.138 105.722 127.138 105.546 127.032 105.511C126.891 105.476 126.785 105.511 126.644 105.511C126.292 105.511 125.975 105.652 125.623 105.722C125.094 105.828 124.672 105.616 124.143 105.828C123.756 105.968 123.403 106.25 122.981 106.355C122.699 106.426 122.488 106.426 122.241 106.566C121.713 106.883 121.325 107.516 120.832 107.938C121.043 108.114 121.395 108.185 121.642 108.361C121.783 108.15 122.03 107.903 122.276 107.763C122.628 107.551 122.628 107.551 122.805 107.974C122.945 108.29 122.981 108.501 122.805 108.853C122.558 109.311 122.1 109.346 121.748 109.627C122.17 110.225 122.945 109.979 123.544 110.331C123.756 110.472 124.601 110.894 124.672 111.14C124.742 111.527 123.861 111.773 123.544 111.844C123.122 111.949 123.157 111.808 122.805 111.527C122.523 111.316 122.241 111.316 121.924 111.175C121.607 111.034 121.466 110.823 121.219 110.612C120.937 110.401 120.585 110.331 120.233 110.331C120.303 110.577 120.374 111.21 120.48 111.316L119.775 111.879C119.528 111.597 119.141 111.386 118.753 111.562C118.401 111.703 118.084 111.949 117.732 112.02C117.274 112.09 116.886 111.773 116.499 111.562C116.111 111.351 115.759 111.21 115.618 110.859C115.548 110.647 115.583 110.612 115.477 110.436C115.407 110.366 115.231 110.19 115.125 110.155C114.737 109.979 114.279 109.873 113.857 109.698C113.223 109.416 112.835 108.959 112.307 109.486C111.954 109.838 111.778 110.225 111.25 110.331C110.827 110.401 110.369 110.19 109.946 110.12C108.537 109.944 107.163 109.733 105.719 109.873C105.367 109.909 104.979 109.909 104.627 110.049C104.239 110.225 103.958 110.507 103.57 110.612C103.006 110.753 102.337 110.647 101.879 111.07C101.492 111.386 101.421 111.949 101.034 112.266C100.541 112.688 99.8712 112.794 99.4485 113.356C99.2723 113.603 99.2019 113.884 98.9201 114.06C98.5325 114.306 97.9337 114.412 97.5109 114.588C97.0882 114.764 96.4893 115.291 96.0314 115.151C95.8552 115.116 95.7143 114.834 95.5382 114.834C95.3973 114.834 94.9745 115.01 94.8688 115.08C94.4813 115.362 94.6927 115.643 94.6927 116.101C94.7279 116.699 94.3757 116.804 93.812 116.945C93.2484 117.121 93.1075 117.086 92.7904 117.578C92.1211 118.563 91.5927 119.478 91.2051 120.639C91.0642 121.026 90.9233 121.554 91.1347 121.941C91.3813 122.433 91.8393 122.715 91.9449 123.313C92.1211 124.439 91.9802 125.635 92.1563 126.761C92.1915 127.042 92.2972 127.007 92.0506 127.113C91.9449 127.183 91.5927 127.113 91.4517 127.113C91.029 127.077 90.6415 126.972 90.2188 126.937C89.4438 126.866 88.8801 126.515 88.2812 126.057C87.8233 125.741 87.3301 125.6 86.7664 125.565C86.4494 125.565 85.7801 125.67 85.8153 125.142C85.3573 125.037 84.8289 124.65 84.3709 124.65C84.0187 124.263 83.8425 123.454 83.5607 122.961C83.1732 122.363 82.7505 121.73 82.4334 121.097C82.222 120.639 82.1868 120.252 82.1164 119.795C82.0459 119.443 81.9754 119.478 81.7289 119.232C81.2709 118.81 80.8482 118.247 80.4959 117.754C79.7209 116.664 80.1788 115.327 79.5095 114.166C78.8049 112.864 77.7129 111.703 76.6913 110.612C76.2685 110.155 75.881 109.381 75.2821 109.17C74.8946 109.029 74.4367 109.064 74.0492 108.994C73.6969 108.924 73.3798 108.748 73.0276 108.677C72.5696 108.537 72.0764 108.501 71.5832 108.466C71.1253 108.431 70.6673 108.537 70.2093 108.712C69.6105 108.959 69.5752 109.135 69.5752 109.768C69.6105 110.366 69.7161 110.612 69.2934 110.999C69.0116 111.246 68.6593 111.738 68.3775 111.879C67.4968 112.231 66.6161 111.14 65.982 110.753C65.4536 110.436 64.8547 110.225 64.3615 109.838C63.9388 109.522 63.3047 109.17 62.9524 108.748C62.7058 108.431 62.8115 108.114 62.7762 107.727C62.7058 107.235 62.4592 106.813 62.3183 106.32C62.1421 105.792 62.1774 105.265 62.1069 104.737C62.0717 104.209 61.8251 104.174 61.4376 103.857C60.6978 103.294 59.9932 102.837 59.7114 101.887C59.5705 101.359 59.3239 101.254 58.9012 100.937C58.5489 100.691 58.0909 100.55 57.8091 100.234C57.4568 99.8466 57.3511 99.354 57.2102 98.8615C57.0341 98.1579 56.4 98.4393 55.7307 98.3689C53.8636 98.193 49.3896 97.8764 49.3896 97.8764V99.7059L38.3633 98.193L25.1529 90.6641V88.8346L16.6982 87.3218C16.4516 86.8292 16.4163 85.8441 16.3107 85.2812C16.205 84.648 15.9231 83.8388 15.5709 83.2407C15.3595 82.8537 14.9368 82.5019 14.5845 82.2908C14.3379 82.15 13.739 82.15 13.5981 81.9038C13.4572 81.6927 13.6686 81.1649 13.5981 80.9187C13.4572 80.4613 13.1049 80.6724 12.6822 80.5317C12.3299 80.4261 11.8719 80.0391 11.5197 79.828C11.1322 79.5817 10.7799 79.4762 10.3571 79.3003C9.47644 78.9485 9.75827 77.5412 8.84234 77.3301C7.96164 77.1542 7.18663 77.1542 6.48207 76.4505C5.6366 75.6414 6.72867 74.6563 6.7639 73.8119C6.79912 73.1786 6.23548 73.4953 6.02411 73.1083C5.8832 72.862 5.98888 72.3342 5.91843 72.0176C5.81274 71.4899 5.53092 71.701 5.28432 71.3843C5.03773 71.0325 5.14341 70.2233 5.07296 69.8011C5.0025 69.379 4.82636 68.7105 4.54454 68.3587C4.26272 68.0069 4.08658 67.9717 3.94566 67.4791C3.87521 67.1625 3.55816 66.4589 3.66384 66.1422C3.80475 65.7904 4.68545 65.2978 4.54454 64.8053C4.40363 64.1368 4.15703 63.9609 3.69907 63.7498C3.34679 63.5739 3.02974 63.1517 2.92406 62.7999C2.78314 62.3426 2.92406 61.7445 2.95928 61.2871C3.02974 60.302 3.4877 61.2519 3.91044 61.2871C3.98089 60.9001 3.69907 60.5483 3.69907 60.1613C3.69907 59.7743 3.98089 59.7391 4.19226 59.4224C4.33317 59.2114 4.54454 58.6133 4.1218 58.754C3.83998 58.8595 3.45247 59.5984 3.24111 59.8095C3.13542 59.6687 2.99451 59.528 2.88883 59.3873C2.67746 59.1762 2.2195 58.9651 2.25473 58.6484C2.28995 58.4374 2.53655 58.367 2.57178 58.1559C2.607 57.98 2.46609 57.6985 2.39564 57.5226C2.14904 56.819 1.90245 56.0802 1.51494 55.4117C1.23312 54.9191 0.599015 54.3211 0.704698 53.7581C0.739926 53.4767 0.916066 53.1249 0.986521 52.8434C1.12743 52.386 1.23312 51.999 1.26834 51.5065C1.3388 50.9436 1.55017 50.4159 1.44448 49.8529C1.37403 49.3252 1.02175 49.1141 0.775154 48.6919C0.563787 48.3401 0.563787 47.7772 0.493331 47.355C0.422875 46.9328 0.281964 46.3699 0.458103 45.9829C0.634242 45.5959 1.02175 45.5607 1.26834 45.2793C1.55017 44.9626 1.76153 44.4701 1.9729 44.1183C2.36041 43.485 2.64223 42.7462 2.78314 42.0425C2.95928 41.3037 2.607 40.6704 2.64223 39.9316C2.67746 39.3687 2.64223 38.8058 2.67746 38.2781C2.71269 37.6096 3.41725 37.0467 3.24111 36.343C3.17065 36.0968 2.95928 35.7801 2.99451 35.4987C3.02974 35.2876 3.27633 35.1469 3.45247 34.9358C3.87521 34.4432 4.33317 34.1969 4.65022 33.634C6.23548 31.0306 7.43323 28.3215 8.17301 25.3663C8.41961 24.3812 8.77189 23.4664 9.15939 22.5517C9.33553 22.0943 9.47644 21.8481 9.40599 21.3907C9.37076 21.0389 9.22985 20.7222 9.47644 20.4408C9.79349 20.089 10.0753 20.2649 9.93441 19.7723C9.79349 19.3501 9.61736 19.3501 10.0753 19.0687C10.2162 18.9631 10.4276 18.9631 10.4981 18.752C10.5685 18.4354 10.3571 18.5409 10.2162 18.365C9.96963 18.0836 10.0753 17.8373 10.0401 17.4151C10.0049 16.9929 9.75827 16.5707 9.72304 16.1837C9.65258 15.4097 10.4981 14.8116 10.3219 14.0376C10.2162 13.6155 9.79349 13.334 9.65258 12.947C9.5469 12.6304 9.75827 11.9971 9.89918 11.7156C10.0401 11.4342 9.89918 11.4342 10.181 11.5397C10.3571 11.5749 10.5333 11.786 10.639 11.8915C10.956 12.173 11.2731 12.4545 11.6253 12.6655C12.0481 12.9118 12.4004 13.1581 12.7879 13.4747C13.2458 13.8266 13.422 13.8617 13.9504 13.7562C14.5845 13.6506 14.2322 13.9673 14.6549 14.2136C14.7959 14.2839 15.0777 14.1432 15.1834 14.2136C15.3595 14.3191 15.289 14.5302 15.3595 14.7061C15.4652 15.0931 15.7118 15.1283 15.7822 15.4449C15.8527 15.7967 15.6766 16.1837 15.8175 16.5004C16.0993 16.1837 16.4868 15.8671 16.7334 15.5505C16.4516 15.1283 16.1697 15.1987 16.3107 14.6006C16.3811 14.3543 16.522 14.2487 16.4163 13.9321C16.3107 13.6858 16.0641 13.5803 16.1345 13.2636C16.522 13.0174 16.8743 12.7359 16.6277 12.2082C16.522 11.9267 16.2402 11.8564 16.205 11.5397C16.1697 11.1879 16.4516 10.6602 16.4163 10.3083C16.4163 10.3083 35.7212 16.1837 55.1318 18.8576C74.5424 21.5314 98.4621 22.024 98.4621 22.024V20.1945L99.7303 20.6167Z" stroke="#303334" stroke-width="0.8" stroke-miterlimit="10" stroke-linecap="round" stroke-linejoin="round"/>
<path d="M119.564 24.5219C119.282 24.9089 118.578 25.1904 118.19 25.4718C117.873 25.7181 117.591 25.9996 117.309 26.281C117.204 26.4217 116.957 26.5273 117.063 26.7384C117.133 26.8439 117.591 26.8791 117.732 26.8791C118.437 26.7384 119.177 25.4366 119.635 24.8386L119.564 24.5219Z" stroke="#303334" stroke-width="0.8" stroke-miterlimit="10" stroke-linecap="round" stroke-linejoin="round"/>
</g>
<defs>
<clipPath id="clip0_1198_34300">
<rect width="194" height="144" fill="white"/>
</clipPath>
</defs>
</svg>
